<svg id="Capa_1" data-name="Capa 1" xmlns="http://www.w3.org/2000/svg" viewBox="0 0 333.43 67.14"><defs><style>.cls-1{fill:#fff;}</style></defs><title>book</title><path class="cls-1" d="M324.68,170.23l-14-1c-2.52-3.18-5.33-8.54-7.08-17.53l-.76-3.86-3.89-.48c-.43-.05-42.94-5.31-76.53-12.42-28.15-6-44.6,4.91-50.37,9.87a35.09,35.09,0,0,0-4.7,4.86,36.29,36.29,0,0,0-4.7-4.86c-5.77-4.95-22.23-15.81-50.38-9.87-33.58,7.11-76.1,12.38-76.53,12.43l-3.89.48-.74,3.84c-1.74,8.9-4.51,14.23-7,17.44L8.74,170.23a9.45,9.45,0,0,0,1.42,18.84l116.19-8.69c5.28,9.33,17.25,19.9,39.71,19.9.23,0,.44,0,.66-.06s.43.06.66.06c22.46,0,34.42-10.57,39.71-19.9l116.19,8.69a9.45,9.45,0,1,0,1.4-18.84Zm-123-9.21a9.34,9.34,0,0,0-10,7.63c0,.12-2.72,12.73-24.29,12.73-.22,0-.43.06-.65.07s-.44-.07-.66-.07c-20.6,0-24-11.61-24.28-12.74a9.45,9.45,0,0,0-10-7.63l-94.54,7.08a58.84,58.84,0,0,0,3.63-10.54c11.27-1.47,45.51-6.15,73.65-12.09,16.25-3.44,31.62-.64,41.11,7.5,4.88,4.18,6.46,8.32,6.34,10.6,0,0,0,.07,0,.11s0,.32,0,.49a5.91,5.91,0,0,0,.19.69,5.27,5.27,0,0,0,.29,1.12,6.63,6.63,0,0,0,.48.81,5.74,5.74,0,0,0,.67.87,6.47,6.47,0,0,0,.78.6,4.75,4.75,0,0,0,.89.53,4.87,4.87,0,0,0,1.06.28,4.58,4.58,0,0,0,.73.18c.1,0,.19,0,.3,0s.2.05.3,0a3.86,3.86,0,0,0,.81-.21,4.24,4.24,0,0,0,.93-.24,4.77,4.77,0,0,0,1-.62,4.49,4.49,0,0,0,.65-.5,4.89,4.89,0,0,0,.73-.95,5.56,5.56,0,0,0,.46-.75,5.2,5.2,0,0,0,.29-1.13,5.41,5.41,0,0,0,.19-.69c0-.16,0-.33,0-.49s0-.07,0-.11c-.12-2.28,1.46-6.42,6.34-10.6,9.49-8.14,24.85-10.94,41.11-7.5,28.14,6,62.38,10.62,73.64,12.09a58.39,58.39,0,0,0,3.69,10.65Z" transform="translate(0 -133.15)"/></svg>